<?xml version="1.0" standalone="no"?>
<!DOCTYPE svg PUBLIC "-//W3C//DTD SVG 20010904//EN"
 "http://www.w3.org/TR/2001/REC-SVG-20010904/DTD/svg10.dtd">
<svg version="1.0" xmlns="http://www.w3.org/2000/svg"
 width="96.000000pt" height="96.000000pt" viewBox="0 0 96.000000 96.000000"
 preserveAspectRatio="xMidYMid meet">
<metadata>
Created by potrace 1.14, written by Peter Selinger 2001-2017
</metadata>
<g transform="translate(0.000000,96.000000) scale(0.100000,-0.100000)"
fill="#000000" stroke="none">
<path d="M680 811 c0 -11 -47 -29 -85 -33 -28 -3 -30 -5 -27 -42 2 -22 9 -57
16 -78 l14 -38 -118 0 c-103 0 -118 2 -123 18 -2 9 -8 24 -11 33 -6 13 1 19
31 26 23 5 38 15 38 23 0 11 -16 16 -65 18 -91 4 -110 -2 -110 -38 0 -28 21
-44 51 -38 7 2 17 -9 23 -24 8 -22 5 -39 -15 -85 l-25 -57 -44 2 c-57 4 -126
-30 -157 -77 -103 -154 62 -342 227 -259 25 13 54 38 65 55 19 31 23 32 63 27
54 -8 92 14 92 54 0 16 -4 32 -9 38 -10 9 96 194 110 194 4 0 10 -12 13 -26 5
-20 1 -33 -17 -53 -82 -88 -72 -215 22 -278 147 -99 334 52 266 214 -32 75
-89 111 -173 109 l-52 -1 -19 50 c-24 66 -55 184 -50 190 3 2 17 6 33 9 15 3
39 12 52 21 30 19 32 55 4 55 -11 0 -20 -4 -20 -9z m-90 -235 c0 -8 -123 -206
-126 -203 -2 1 -21 48 -43 105 l-39 102 104 0 c57 0 104 -2 104 -4z m-207
-111 c14 -38 29 -78 33 -87 12 -35 -16 -17 -36 21 -10 22 -31 48 -45 59 -25
20 -25 21 -8 56 9 20 20 33 23 29 4 -5 18 -39 33 -78z m-183 -52 l0 -47 -30
29 c-16 16 -30 32 -30 36 0 6 25 18 58 28 1 1 2 -20 2 -46z m47 25 c-3 -8 -6
-5 -6 6 -1 11 2 17 5 13 3 -3 4 -12 1 -19z m472 -11 c0 -21 -1 -21 -9 -2 -12
28 -12 37 0 30 6 -3 10 -16 9 -28z m101 4 c0 -4 -13 -20 -30 -36 l-30 -29 0
47 0 46 30 -10 c17 -6 30 -14 30 -18z m-679 -61 l34 -30 -47 0 c-27 0 -48 2
-48 5 0 5 23 55 25 55 1 0 18 -13 36 -30z m203 14 c9 -24 8 -24 -26 -24 -31 0
-31 0 -12 19 24 24 30 25 38 5z m320 -14 l29 -30 -46 0 -46 0 10 30 c6 17 14
30 17 30 4 0 20 -14 36 -30z m204 5 c14 -29 2 -39 -42 -33 l-26 3 23 27 c27
34 31 34 45 3z m-726 -106 c-18 -17 -35 -30 -36 -28 -6 8 -26 48 -26 53 0 3
21 6 48 6 l47 0 -33 -31z m523 1 c-35 -36 -39 -37 -53 -5 -16 36 -17 35 35 35
l47 0 -29 -30z m204 0 c-6 -16 -13 -30 -16 -30 -2 0 -18 14 -35 30 l-30 30 46
0 45 0 -10 -30z m-569 -61 c0 -4 -13 -12 -30 -18 l-30 -10 0 46 0 47 30 -29
c17 -16 30 -32 30 -36z m520 0 c0 -4 -13 -12 -30 -18 l-30 -10 0 46 0 47 30
-29 c17 -16 30 -32 30 -36z m-620 12 l0 -40 -30 10 c-36 13 -36 16 -8 46 30
32 38 29 38 -16z m140 29 c0 -5 -4 -10 -9 -10 -6 0 -13 5 -16 10 -3 6 1 10 9
10 9 0 16 -4 16 -10z m380 -29 l0 -40 -30 10 c-16 6 -30 13 -30 15 0 6 45 52
53 53 4 1 7 -17 7 -38z"/>
</g>
</svg>
